HIERARCHY
ROOT Hips
{
	OFFSET 0.000000 0.000000 0.000000
	CHANNELS 6 Xposition Yposition Zposition Xrotation Yrotation Zrotation
	JOINT LeftUpLeg_virtual
	{
		OFFSET 0.000000 0.000000 0.000000
		CHANNELS 3 Xrotation Yrotation Zrotation
		JOINT LeftUpLeg
		{
			OFFSET 11.394100 -6.187798 -0.413800
			CHANNELS 3 Xrotation Yrotation Zrotation
			JOINT LeftLeg
			{
				OFFSET 0.430247 -32.302673 3.732800
				CHANNELS 3 Xrotation Yrotation Zrotation
				JOINT LeftFoot
				{
					OFFSET -0.430247 -48.264931 -6.423300
					CHANNELS 3 Xrotation Yrotation Zrotation
					JOINT LeftToeBase
					{
						OFFSET 4.230900 -16.068199 23.438400
						CHANNELS 3 Xrotation Yrotation Zrotation
						JOINT LeftToe_End
						{
							OFFSET 4.510700 0.695400 19.974600
							CHANNELS 3 Xrotation Yrotation Zrotation
							End Site
							{
								OFFSET 0 0 0
							}
						}
					}
				}
			}
		}
	}
	JOINT RightUpLeg_virtual
	{
		OFFSET 0.000000 0.000000 0.000000
		CHANNELS 3 Xrotation Yrotation Zrotation
		JOINT RightUpLeg
		{
			OFFSET -11.333700 -6.187798 -0.413800
			CHANNELS 3 Xrotation Yrotation Zrotation
			JOINT RightLeg
			{
				OFFSET -0.430392 -32.302628 3.733000
				CHANNELS 3 Xrotation Yrotation Zrotation
				JOINT RightFoot
				{
					OFFSET 0.430392 -48.264973 -6.423500
					CHANNELS 3 Xrotation Yrotation Zrotation
					JOINT RightToeBase
					{
						OFFSET -4.230900 -16.068199 23.438400
						CHANNELS 3 Xrotation Yrotation Zrotation
						JOINT RightToe_End
						{
							OFFSET -4.510700 0.695400 19.974600
							CHANNELS 3 Xrotation Yrotation Zrotation
							End Site
							{
								OFFSET 0 0 0
							}
						}
					}
				}
			}
		}
	}
	JOINT Spine_virtual
	{
		OFFSET 0.000000 0.000000 0.000000
		CHANNELS 3 Xrotation Yrotation Zrotation
		JOINT Spine
		{
			OFFSET -0.002400 12.777504 0.315300
			CHANNELS 3 Xrotation Yrotation Zrotation
			JOINT Spine1
			{
				OFFSET -0.002067 5.816869 0.032633
				CHANNELS 3 Xrotation Yrotation Zrotation
				JOINT Spine1_split
				{
					OFFSET -0.002067 5.816869 0.032633
					CHANNELS 3 Xrotation Yrotation Zrotation
					JOINT Spine2
					{
						OFFSET -0.002067 5.816869 0.032633
						CHANNELS 3 Xrotation Yrotation Zrotation
						JOINT Neck_virtual
						{
							OFFSET 0.000000 0.000000 0.000000
							CHANNELS 3 Xrotation Yrotation Zrotation
							JOINT Neck
							{
								OFFSET -0.003700 21.199493 -0.826900
								CHANNELS 3 Xrotation Yrotation Zrotation
								JOINT Head
								{
									OFFSET 0.000000 20.442200 4.834800
									CHANNELS 3 Xrotation Yrotation Zrotation
									JOINT HeadTop_End
									{
										OFFSET 0.000000 34.668396 4.968400
										CHANNELS 3 Xrotation Yrotation Zrotation
										End Site
										{
											OFFSET 0 0 0
										}
									}
								}
							}
						}
						JOINT LeftShoulder_virtual
						{
							OFFSET 0.000000 0.000000 0.000000
							CHANNELS 3 Xrotation Yrotation Zrotation
							JOINT LeftShoulder
							{
								OFFSET 3.288150 8.794197 -1.372250
								CHANNELS 3 Xrotation Yrotation Zrotation
								JOINT LeftShoulder_split
								{
									OFFSET 3.288150 8.794197 -1.372250
									CHANNELS 3 Xrotation Yrotation Zrotation
									JOINT LeftArm
									{
										OFFSET 11.953299 -2.279007 -0.146200
										CHANNELS 3 Xrotation Yrotation Zrotation
										JOINT LeftForeArm
										{
											OFFSET 18.448900 0.000000 0.000000
											CHANNELS 3 Xrotation Yrotation Zrotation
											JOINT LeftHand
											{
												OFFSET 29.527798 0.000000 0.000000
												CHANNELS 3 Xrotation Yrotation Zrotation
												End Site
												{
													OFFSET 0 0 0
												}
											}
										}
									}
								}
							}
						}
						JOINT RightShoulder_virtual
						{
							OFFSET 0.000000 0.000000 0.000000
							CHANNELS 3 Xrotation Yrotation Zrotation
							JOINT RightShoulder
							{
								OFFSET -3.249400 8.794197 -1.372250
								CHANNELS 3 Xrotation Yrotation Zrotation
								JOINT RightShoulder_split
								{
									OFFSET -3.249400 8.794197 -1.372250
									CHANNELS 3 Xrotation Yrotation Zrotation
									JOINT RightArm
									{
										OFFSET -11.953299 -2.279007 -0.146200
										CHANNELS 3 Xrotation Yrotation Zrotation
										JOINT RightForeArm
										{
											OFFSET -18.448900 0.000000 0.000000
											CHANNELS 3 Xrotation Yrotation Zrotation
											JOINT RightHand
											{
												OFFSET -29.527802 0.000000 0.000000
												CHANNELS 3 Xrotation Yrotation Zrotation
												End Site
												{
													OFFSET 0 0 0
												}
											}
										}
									}
								}
							}
						}
					}
				}
			}
		}
	}
}
MOTION
Frames: 4
Frame Time: 0.03333333
-8.591406 77.222832 14.954582 0.000000 0.000000 0.000000 8.863148 31.083023 -2.783721 -81.047701 -6.811006 -29.257112 79.270308 -39.155808 6.672421 12.208099 10.054478 7.646750 3.199587 0.205130 2.564478 0.000000 0.000000 0.000000 10.356474 35.923745 -4.030104 3.793114 -29.981392 -0.815785 61.614788 13.045057 -11.623585 -4.950965 4.260874 -7.785185 -64.783641 -15.907847 10.277789 0.000000 0.000000 0.000000 10.230520 40.616143 -5.246070 6.185868 12.404590 -0.141630 3.356228 16.359806 0.084146 1.070065 1.882311 0.578588 0.000000 0.000000 0.000000 2.878382 15.376118 -0.412493 18.830878 -31.644085 3.795012 -22.760950 -36.294741 -1.397263 0.000000 0.000000 0.000000 2.806461 16.365965 -0.886827 2.116523 -5.038269 -6.528621 -3.786583 -8.773077 -2.523983 -33.182616 9.772334 -25.858497 50.401151 -3.224180 17.643212 0.000000 0.000000 0.000000 4.104718 16.437796 -1.079971 0.418993 7.921516 -16.137893 -5.018669 4.775283 3.184599 -18.483322 -20.173136 3.686743 -33.414375 29.483956 9.816175 0.000000 0.000000 0.000000 
-8.118546 77.410187 14.808292 0.000000 0.000000 0.000000 9.264381 29.247362 -2.840767 -81.238133 -6.265406 -27.590863 79.730478 -38.356191 6.888533 11.998104 9.386077 7.384228 3.453764 0.282609 2.764587 0.000000 0.000000 0.000000 11.023492 34.342338 -4.026374 3.692230 -28.415318 -1.401771 60.641657 13.034573 -11.299604 -5.006272 4.305391 -8.159096 -63.927401 -15.513958 10.383919 0.000000 0.000000 0.000000 10.656777 39.458672 -5.698258 6.268316 12.126776 -0.084939 3.577089 15.895766 -0.181709 1.089986 1.490856 0.710396 0.000000 0.000000 0.000000 2.981850 14.909768 -0.676633 17.761974 -31.240681 2.964417 -22.491789 -37.391232 -0.429204 0.000000 0.000000 0.000000 3.020068 15.874577 -1.277403 2.042287 -5.254218 -6.444892 -4.742162 -8.587945 -1.759748 -27.296224 13.408348 -25.186784 50.452026 -3.192170 19.092143 0.000000 0.000000 0.000000 4.194823 16.058045 -1.242382 0.223630 6.911706 -16.436751 -5.538196 3.821503 2.581087 -23.085392 -18.331480 4.619861 -32.596764 30.860844 12.257834 0.000000 0.000000 0.000000 
-7.577689 77.684692 14.694065 0.000000 0.000000 0.000000 9.478299 26.365603 -2.935535 -80.593828 -5.843272 -25.287672 79.452872 -37.001129 6.622953 10.875907 8.732209 7.474246 3.278484 0.378830 2.947717 0.000000 0.000000 0.000000 11.354386 31.699147 -3.987407 3.926788 -26.295072 -2.096191 58.939082 13.430293 -10.935640 -4.311209 4.384514 -7.770413 -64.016180 -15.171851 10.395475 0.000000 0.000000 0.000000 10.621443 37.280723 -5.955968 6.536892 11.715222 0.110454 3.847180 15.412517 -0.383611 0.732705 1.555409 0.595184 0.000000 0.000000 0.000000 3.202318 14.464541 -0.857283 16.005046 -30.686865 1.969485 -22.284786 -38.122209 0.568103 0.000000 0.000000 0.000000 3.216378 15.451266 -1.541692 1.824449 -4.956145 -5.979138 -5.640801 -8.790182 -1.150437 -20.697334 17.398353 -25.050906 50.459389 -2.247022 20.212555 0.000000 0.000000 0.000000 4.265292 15.698387 -1.338529 -0.275823 5.398808 -17.393451 -4.963477 3.241958 1.918441 -30.338888 -14.232501 6.495001 -30.825538 31.150143 13.714438 0.000000 0.000000 0.000000 
-6.918997 78.045174 14.599319 0.000000 0.000000 0.000000 9.513759 22.692578 -2.928746 -79.110297 -5.518457 -22.537449 78.508291 -35.272282 5.992305 9.096230 7.888886 7.735013 2.188450 0.438472 3.287650 0.000000 0.000000 0.000000 11.349080 28.166384 -3.827145 4.398958 -23.871537 -2.998127 56.898047 14.227871 -10.565718 -3.367560 4.666769 -6.428942 -64.850891 -14.998855 10.380631 0.000000 0.000000 0.000000 10.158399 33.917698 -5.841995 6.999149 11.203032 0.370718 4.131538 14.935614 -0.511871 0.530722 1.752745 0.531034 0.000000 0.000000 0.000000 3.412281 14.044693 -0.971048 13.899006 -29.781759 1.067947 -22.207120 -38.057384 1.387857 0.000000 0.000000 0.000000 3.352630 15.068092 -1.690559 1.493506 -4.096271 -5.235390 -6.498443 -9.123819 -0.934461 -13.371784 21.508923 -25.888717 50.279707 -0.582170 21.114712 0.000000 0.000000 0.000000 4.375925 15.397478 -1.395556 -0.946340 3.715633 -18.437990 -3.607090 3.131078 1.399392 -38.588288 -7.937559 9.755271 -27.745642 29.749968 13.589809 0.000000 0.000000 0.000000 
